<!--?xml version="1.0" encoding="utf-8"?-->
<!-- Generator: Adobe Illustrator 15.1.0, SVG Export Plug-In . SVG Version: 6.00 Build 0)  -->

<svg version="1.1" id="_x32_" xmlns="http://www.w3.org/2000/svg" xmlns:xlink="http://www.w3.org/1999/xlink" x="0px" y="0px" width="512px" height="512px" viewBox="0 0 512 512" style="width: 16px; height: 16px; opacity: 1;" xml:space="preserve">
<style type="text/css">

	.st0{fill:#4B4B4B;}

</style>
<g>
	<path class="st0" d="M41.203,390h429.609c10.078,0,18.266-8.188,18.266-18.281V79.234c0-10.109-8.188-18.281-18.266-18.281H41.203
		c-10.109,0-18.281,8.172-18.281,18.281v292.484C22.922,381.813,31.094,390,41.203,390z M296.313,109.063
		c0,22.094-19.656,44.219-41.75,39.313C254.563,148.375,257.016,109.063,296.313,109.063z M220.406,159.453
		c15.391-4.953,32.344,1.641,35.266,10.703c3.125-9,20.219-15.188,35.484-9.938c5.906,2.031,11.375,5.328,16.078,9.75
		c-14.859,6.969-25.172,22-25.172,39.5c0,18.281,11.281,33.938,27.234,40.406c-13.375,19.156-35,28.625-54.781,28.406
		c-30.266-0.313-64.5-23.203-66.156-68.5C187.359,182.938,202.203,165.313,220.406,159.453z" style="fill: rgb(75, 75, 75);"></path>
	<path class="st0" d="M0,409.063v8.406c0,18.469,15.109,33.578,33.578,33.578h444.844c18.469,0,33.578-15.109,33.578-33.578v-8.406
		H0z" style="fill: rgb(75, 75, 75);"></path>
</g>
</svg>
